<svg width="319" height="120" viewBox="0 0 319 120" fill="none" xmlns="http://www.w3.org/2000/svg">
<path fill-rule="evenodd" clip-rule="evenodd" d="M29.0839 41.4002C30.2347 41.7884 30.109 41.8733 30.994 42.7148C31.6651 43.3528 32.0469 43.7811 32.6797 44.4415C33.8567 45.67 34.5738 46.2837 35.891 47.6696C37.9086 49.7924 40.1495 52.2059 42.0264 54.4291C45.9879 59.1215 50.17 63.3853 54.4929 68.1437C58.2574 72.2874 62.9978 77.4639 66.8024 81.6514C73.4358 88.952 74.364 86.8385 72.2584 93.2629C70.5924 98.3458 62.6697 107.536 52.621 106.212C45.4057 105.262 41.2581 99.5691 40.9861 91.3084C40.7066 82.8234 47.5218 76.9124 38.9401 72.3182C32.0158 68.6111 28.6713 81.4438 27.83 85.8425C26.2814 93.939 27.4547 101.775 31.1456 107.113C39.4718 119.155 54.6841 123.257 68.0895 116.682C77.6545 111.991 81.6259 103.994 86.4117 95.9649C88.4915 92.476 89.3423 91.0148 91.779 88.4077C95.7751 84.1324 100.731 79.8436 103.818 74.3133C108.749 65.4808 106.103 52.195 100.74 43.4415C98.6748 40.0713 96.9476 38.3075 92.2538 38.5085C83.6093 50.2601 90.0284 47.8085 92.0841 58.9574C92.8791 63.2694 92.119 67.5702 89.8785 70.581C88.6211 72.2705 87.9359 72.4999 86.2268 74.1275C84.9874 75.3079 83.8545 76.7252 82.5323 77.879C80.868 77.1779 69.5514 64.0764 67.8345 61.9906C65.5476 59.2127 62.8596 56.7815 60.6022 54.0527C59.3112 52.4921 58.3544 51.687 56.9455 50.1245L39.023 29.3695C36.526 26.1959 39.8932 21.4608 42.21 19.0392C52.1412 8.65939 69.5936 14.2785 68.4415 27.824C68.0854 32.0114 65.9145 37.2344 66.2411 40.8272C66.5645 44.3863 71.0128 48.795 74.8726 47.6613C76.8691 47.075 80.1006 41.3359 80.9092 38.4341C84.9988 23.7567 82.5154 13.6443 70.9796 5.32261C57.2499 -4.58163 37.2356 -0.0296755 28.1995 13.7325C25.5399 17.783 24.2209 21.7128 22.8977 23.6483C19.2712 28.9532 20.659 27.9742 16.0028 32.2759C11.1019 36.8037 4.90745 40.8392 2.1906 49.1929C-1.09012 59.2809 -0.904532 64.1147 4.2424 73.2691C6.13205 76.6302 12.0621 84.2492 16.9356 83.3988C18.9045 83.0552 19.6208 80.4549 20.2364 78.7105C21.9912 73.737 22.063 75.083 17.4993 68.7256C15.275 65.6268 13.0009 61.9937 13.9552 57.5084C15.4012 50.7113 24.9441 43.0277 29.084 41.4001L29.0839 41.4002Z" fill="#6649C0"/>
<path fill-rule="evenodd" clip-rule="evenodd" d="M123.578 55.6137L132.757 55.7178L132.723 23.0857C134.469 23.9894 149.521 51.7367 152.66 55.6173L163.107 55.703L163.105 8.09849L154.054 8.01931L153.688 39.0892C153.063 38.9127 149.153 32.5384 148.558 31.6367C146.852 29.0522 145.206 26.3954 143.563 23.7475L133.327 7.90609L123.647 7.84937L123.578 55.6137H123.578Z" fill="black"/>
<path fill-rule="evenodd" clip-rule="evenodd" d="M208.647 113.678L217.759 113.632L217.728 81.9522C219.322 83.0627 226.036 95.2892 227.578 97.8858C230.772 103.261 234.115 108.611 237.074 113.661L247.509 113.632L247.54 66.4732L238.283 66.4848L238.099 97.0901C236.392 95.9558 229.09 83.4743 228.064 81.8423C226.266 78.9838 224.985 77.0814 223.168 74.2052C221.668 71.8321 219.81 68.3562 218.189 66.4045L208.75 66.3479L208.648 113.678L208.647 113.678Z" fill="black"/>
<path fill-rule="evenodd" clip-rule="evenodd" d="M224.72 28.5535C236.388 25.6581 238.594 46.4878 227.999 48.616C216.126 51.001 213.027 31.4556 224.72 28.5535ZM234.826 24.6929C233.613 24.1659 227.517 17.0551 216.652 22.18C211.287 24.7108 208.047 30.3068 207.879 38.1615C207.797 41.9933 208.326 45.4574 209.844 48.4838C212.85 54.4755 219.628 57.4746 226.564 56.4162C231.107 55.723 231.815 53.8375 234.34 51.948L234.442 56.1354L244.044 56.0738L244.094 6.32959L234.894 6.34116L234.826 24.693L234.826 24.6929Z" fill="black"/>
<path fill-rule="evenodd" clip-rule="evenodd" d="M178.349 89.5876L178.413 74.8799C186.751 74.153 193.503 73.6782 193.529 82.199C193.558 91.4659 186.245 89.9389 178.349 89.5876ZM169.175 113.598L178.381 113.639L178.421 97.8057C185.75 97.5807 191.965 98.1547 197.507 94.4512C204.443 89.816 207.854 71.2044 190.373 67.1692C185.673 66.0841 174.651 66.3663 169.29 66.5452L169.175 113.598L169.175 113.598Z" fill="black"/>
<path fill-rule="evenodd" clip-rule="evenodd" d="M138.41 113.897L148.869 113.997C150.182 111.6 155.508 94.367 156.757 90.519C159.305 82.6673 161.8 74.6875 164.29 66.6052L154.555 66.5248L143.896 100.922C142.222 98.7321 134.926 71.8024 132.792 66.5159L122.977 66.4966C123.511 70.1042 125.553 75.2199 126.667 78.5666L138.41 113.897V113.897Z" fill="black"/>
<path fill-rule="evenodd" clip-rule="evenodd" d="M183 28.9612C195.936 24.44 199.213 44.2535 189.622 47.8774C183.752 50.095 179.067 47.2076 177.871 42.0552C176.506 36.1768 178.563 30.5118 183 28.9613V28.9612ZM182.099 20.85C171.563 22.9686 166.779 30.3795 168.495 42.8508C171.273 63.0475 208.272 61.8394 204.026 34.7111C202.575 25.4465 193.102 18.6374 182.099 20.8499V20.85Z" fill="black"/>
<path fill-rule="evenodd" clip-rule="evenodd" d="M258.019 34.167C259.911 24.1141 272.502 25.4221 273.694 34.1979L258.019 34.167ZM282.251 48.7929L276.288 44.8711C273.112 46.7644 270.764 50.5276 264.988 49.5385C260.984 48.8532 257.422 45.0236 257.571 40.4603L282.669 40.4688C282.975 29.4754 279.357 22.5736 269.685 20.8198C258.754 18.8377 251.183 24.5173 249.036 33.0347C246.388 43.5363 251.09 52.3924 258.665 55.4075C267.707 59.0065 279.67 54.8859 282.251 48.7928V48.7929Z" fill="black"/>
<path fill-rule="evenodd" clip-rule="evenodd" d="M295.444 38.1643L283.532 53.0729C282.952 53.8404 282.167 54.4519 281.924 55.5112L292.155 55.7438C294.191 53.7077 298.832 45.8521 300.496 45.0721L307.555 55.6538L318.861 55.6595L312.237 46.8903C310.787 45.1406 306.114 39.5231 305.37 37.7846C307.447 34.8341 317.67 24.8529 318.323 21.6415L308.131 21.6137C306.875 23.3777 301.681 30.7395 300.496 31.1452C291.769 19.7128 298.404 21.6287 282.888 21.6511C283.297 23.6756 294.595 35.5212 295.444 38.1642L295.444 38.1643Z" fill="black"/>
</svg>
